<?xml version="1.0" encoding="utf-8"?>
<!-- Generator: Adobe Illustrator 23.0.5, SVG Export Plug-In . SVG Version: 6.00 Build 0)  -->
<svg version="1.1" id="Layer_1" xmlns="http://www.w3.org/2000/svg" xmlns:xlink="http://www.w3.org/1999/xlink" x="0px" y="0px"
	 viewBox="0 0 143 143" style="enable-background:new 0 0 143 143;" xml:space="preserve">
<style type="text/css">
	.st0{fill:#FFFFFF;}
	.st1{fill:#464646;}
</style>
<circle class="st0" cx="71.5" cy="71.5" r="71.5"/>
<path class="st0" d="M45.1,115.9c0.1,0,0.3,0,0.4,0.1l1,0.6c14.2,7.6,28.9,8.7,43.8,2.8c22.8-8.8,36.1-32.4,31.9-56.5
	c-2-13.5-9.6-25.6-20.9-33.3c-14.2-9.9-29.7-12.1-46.2-6.9c-7.6,2.4-14.4,6.6-20,12.3c-1.3,1.2-1.8,2.9-1.3,4.6
	c1,3.7,5.2,4.6,8.1,1.9C52.3,31.7,64.6,27.8,78.6,30c24,3.8,39.8,28,33.9,51.6c-5.5,22.6-28.3,36.4-50.9,30.8
	c-3.2-0.8-6.2-1.9-9.1-3.4c-1.6-0.8-3-1.7-4.8-2.7c1.7-0.6,3-1,4.4-1.5c2.4-0.8,3.6-3.4,2.9-5.8c-0.7-2.4-3.2-3.8-5.6-3.1h-0.1
	c-4.2,1.3-8.4,2.7-12.6,4.2c-2.1,0.8-3.3,2.9-2.9,5.1c0.8,4.6,1.6,9.2,2.5,13.8c0.4,2.5,2.8,4.3,5.4,3.8c2.4-0.4,4.1-2.6,3.9-5.1
	C45.3,117.2,45.2,116.6,45.1,115.9z M73.9,69.1v-1.5c0-7.2,0-14.5,0-21.7c0.1-2.6-1.8-4.8-4.4-5c-2.6-0.1-4.8,1.8-5,4.4
	c0,0.2,0,0.4,0,0.6v27.4c-0.2,2.6,1.7,4.9,4.3,5.1c0.2,0,0.5,0,0.7,0h20.3c3,0,5.1-2,5.1-4.7S92.8,69,89.8,69L73.9,69.1L73.9,69.1z
	 M20,68.8L20,68.8c0,0.5-0.1,1-0.1,1.4c0,2.6,2.1,4.7,4.7,4.7c2.3,0,4.3-1.7,4.6-4c0.1-1.2,0.2-2.3,0.2-3.5c0-2.4-1.8-4.4-4.2-4.7
	s-4.6,1.4-5.1,3.7C20.1,67.3,20.1,68,20,68.8z M34,51.5c0.2-2.2-1.2-4.3-3.3-5c-2-0.6-4.2,0.2-5.3,2.1c-0.6,1-1.1,2.1-1.5,3.2
	c-0.7,2,0.1,4.2,1.9,5.4s4.1,1,5.7-0.5C32.8,55.2,33.7,53.4,34,51.5L34,51.5z M32,86.3c-0.4-1.4-1-2.8-1.6-4.1
	c-1.2-1.9-3.7-2.6-5.7-1.5c-2,0.9-3.1,3.2-2.6,5.4c0.3,1,0.6,2,0.9,2.9c0.8,2.1,3.1,3.3,5.4,2.8C30.5,91.2,32,89.3,32,86.3L32,86.3z
	"/>
<path class="st1" d="M45.1,115.9c0.1,0.7,0.2,1.3,0.3,1.9c0.3,2.6-1.6,4.9-4.2,5.1c-2.5,0.3-4.7-1.4-5.1-3.9
	c-0.8-4.6-1.7-9.2-2.5-13.8c-0.4-2.2,0.8-4.3,2.9-5.1c4.2-1.5,8.4-2.9,12.6-4.2c2.4-0.7,5,0.6,5.7,3V99c0.8,2.4-0.5,4.9-2.9,5.8
	c-1.3,0.5-2.7,0.9-4.4,1.5c1.7,1,3.2,1.9,4.8,2.7c20.7,10.6,46,2.4,56.6-18.3c1.5-2.9,2.6-5.9,3.4-9.1c6-23.6-9.9-47.8-33.9-51.6
	c-14-2.2-26.3,1.7-36.6,11.4c-2.9,2.8-7.1,1.8-8.1-1.9c-0.5-1.7,0.1-3.4,1.3-4.6c5.6-5.7,12.4-9.9,20-12.3c16.5-5.2,32-3,46.2,6.9
	c11.3,7.7,18.8,19.8,20.9,33.3c4.2,24-9.1,47.7-31.9,56.4c-15,5.9-29.6,4.7-43.8-2.8l-1-0.6C45.4,115.9,45.3,115.9,45.1,115.9z"/>
<path class="st1" d="M73.9,69.1h16c3,0,5.1,2,5.1,4.7s-2.1,4.7-5.1,4.7H69.6c-2.6,0.2-4.9-1.7-5.1-4.3c0-0.2,0-0.5,0-0.7V46
	c-0.2-2.6,1.8-4.8,4.3-5c2.6-0.2,4.8,1.8,5,4.3c0,0.2,0,0.4,0,0.6c0,7.3,0,14.5,0,21.7L73.9,69.1z"/>
<path class="st1" d="M20,68.8c0-0.8,0.1-1.6,0.3-2.4c0.5-2.4,2.7-4,5.1-3.7s4.2,2.3,4.2,4.7c0,1.2-0.1,2.3-0.2,3.5
	c-0.4,2.6-2.8,4.3-5.3,3.9c-2.3-0.3-4-2.3-4-4.6C20,69.8,20,69.3,20,68.8L20,68.8z"/>
<path class="st1" d="M34,51.5c-0.3,1.9-1.2,3.7-2.5,5.1c-1.5,1.5-3.9,1.7-5.7,0.5c-1.8-1.1-2.6-3.3-1.9-5.4c0.4-1.1,0.9-2.2,1.5-3.2
	c1.1-1.8,3.3-2.7,5.3-2.1C32.8,47.2,34.2,49.3,34,51.5z"/>
<path class="st1" d="M32,86.3c0,3-1.5,5-3.6,5.4c-2.2,0.5-4.5-0.7-5.4-2.8c-0.4-1-0.7-1.9-0.9-2.9c-0.6-2.2,0.5-4.4,2.6-5.4
	c2-1,4.5-0.3,5.7,1.5C31,83.5,31.6,84.9,32,86.3z"/>
</svg>
