<?xml version="1.0" encoding="utf-8"?>
<!-- Generator: Adobe Illustrator 23.0.5, SVG Export Plug-In . SVG Version: 6.00 Build 0)  -->
<svg version="1.1" id="Layer_1" xmlns="http://www.w3.org/2000/svg" xmlns:xlink="http://www.w3.org/1999/xlink" x="0px" y="0px"
	 viewBox="0 0 143 143" style="enable-background:new 0 0 143 143;" xml:space="preserve">
<style type="text/css">
	.st0{fill:#464646;}
	.st1{fill:#FFFFFF;}
</style>
<title>2</title>
<circle class="st0" cx="71.5" cy="71.5" r="71.5"/>
<g>
	<path class="st1" d="M103.3,30.1c0.4,0.8,1.2,1.5,1.2,2.3c0.1,12.8,0,25.5,0,38.3c0,0.2-0.1,0.5-0.2,0.7c-1.1-0.7-2.1-1.5-3.1-2.4
		c-0.4-0.5-0.5-1.2-0.5-1.8c0-10.3,0-20.7,0-31v-2.3H39v64c0.9-0.1,2-0.6,3-0.3s1.6,1.2,2.3,1.9c1.3,1.1,2.5,2.3,3.7,3.5
		c0.1,0.1,0.3,0.2,0.5,0.3c1.8-1.6,3.7-3.2,5.5-4.9c1.2-1.1,2.3-1.1,3.5,0.1c1.7,1.6,3.5,3.3,5.3,5l6.5-6.2c0.1,0.8,0,1.3,0.2,1.5
		c1.8,2.2,0.4,3.4-1.3,4.6c-1.3,1-2.4,2.3-3.6,3.4c-1.5,1.4-2.2,1.4-3.7,0l-5.3-5c-1.9,1.7-3.8,3.3-5.6,5c-1.2,1.1-2.3,1.1-3.5,0
		c-1.5-1.5-3.2-3-4.8-4.5c-0.4-0.6-1.2-0.8-1.8-0.4c-0.1,0.1-0.2,0.1-0.2,0.2c-0.3,0.2-0.6,0.4-0.9,0.6c-1.4,1-2.6,1-3.8-0.4V30.1
		H103.3z"/>
	<path class="st1" d="M87.3,116.9c-0.9-1-1.8-2.1-2.8-3.1c-3.2-3.2-6.4-6.4-9.7-9.7l1.5-2c2.8,2.9,5.4,5.7,8.1,8.4
		c2.4,2.4,3.1,2.4,5.5,0c6.7-6.5,13.5-13.1,20.2-19.6l1.9,2l-24.5,23.9L87.3,116.9z"/>
	<path class="st1" d="M99,73.8l12.8,12.7l-24.4,23.7L74.6,97.4C82.7,89.7,90.9,81.7,99,73.8z M96.6,80.2c-4.5,4.4-9.5,9-14.4,13.7
		c-0.9,0.9-1.9,1.6-1.1,3.1c0.2,0.4-0.1,1.1-0.1,1.6c-0.1,0.5,0.1,1,0.3,1.5c1.3,1.5,2.6,2.8,3.6,3.8h4.9L105.5,89v-4.5l-4.2-4.3
		H96.6z"/>
	<path class="st1" d="M49.1,69.5V66h40.1v3.4L49.1,69.5L49.1,69.5z"/>
	<path class="st1" d="M49.1,82.1v-3.6h37.6c-1.8,2.1-3.3,3.7-6.3,3.6c-9.6-0.2-19.3-0.1-29-0.1L49.1,82.1L49.1,82.1z"/>
	<path class="st1" d="M88.6,47.2c-1.1-0.3-2.1-0.5-3.2-0.6c-0.4,0-0.9,0.4-1.4,0.6c0.3,0.4,0.5,1,0.8,1.2c0.9,0.5,1.8,1,2.7,1.4
		c1.4,0.6,2.2,2.1,2,3.6c0,1.4-0.9,2.7-2.2,3.3c-2,1.1-4.3,1.1-6.3,0c-0.7-0.4-0.8-2-1.2-3.2c1.8,0.4,3.1,0.8,4.5,0.9
		c0.5,0,1-0.5,1.5-0.7c-0.3-0.5-0.5-1.1-0.9-1.3c-0.9-0.6-1.9-1-2.9-1.5c-1.4-0.8-2.1-2.4-1.8-3.9c0.2-1.5,1.3-2.7,2.8-3
		c2.1-0.6,4.4-0.3,6.4,0.7L88.6,47.2z"/>
	<path class="st1" d="M78.5,54.2V57h-7.8V44h7.7v2.7h-4.2v2.1H78v2.9h-3.8l-0.1,2.6L78.5,54.2z"/>
	<path class="st1" d="M68.1,46.7H64l-0.1,2l3.9,0.2v2.8H64v2.6h4.1V57h-7.7V44h7.7L68.1,46.7z"/>
	<path class="st1" d="M50.2,44H58v2.6l-4.2,0.2v2.5h3.8V52l-3.9,0.2V57h-3.5V44z"/>
	<path class="st1" d="M96.8,92.2c0.1,2.2-1.6,4.1-3.8,4.2c-0.1,0-0.2,0-0.2,0c-2.2,0-4-1.9-4-4.1s1.8-4.1,4-4.1
		C95,88.2,96.8,90,96.8,92.2L96.8,92.2z"/>
</g>
</svg>
