<?xml version="1.0" encoding="utf-8"?>
<!-- Generator: Adobe Illustrator 23.0.5, SVG Export Plug-In . SVG Version: 6.00 Build 0)  -->
<svg version="1.1" id="Layer_1" xmlns="http://www.w3.org/2000/svg" xmlns:xlink="http://www.w3.org/1999/xlink" x="0px" y="0px"
	 viewBox="0 0 170 40" style="enable-background:new 0 0 170 40;" xml:space="preserve">
<style type="text/css">
	.st0{fill:#0069FF;}
	.st1{fill:#FFFFFF;}
	.st2{font-family:'Poppins-Bold';}
	.st3{font-size:15px;}
	.st4{font-size:6.48px;}
</style>
<path class="st0" d="M5.7,0.9c-2.9,0-5.2,2.5-5.2,5.7v26.9c0,3.1,2.3,5.7,5.2,5.7h120.2L115.7,0.9H5.7z"/>
<g>
	<path class="st0" d="M164.3,4c1.1,0,2,1.2,2,2.5v26.9c0,1.4-0.9,2.5-2,2.5h-34.6L121,4H164.3 M164.3,0.9H117l10.3,38.2h37
		c2.9,0,5.2-2.5,5.2-5.7V6.5C169.4,3.4,167.1,0.9,164.3,0.9L164.3,0.9z"/>
</g>
<g>
	<g>
		<path class="st0" d="M153.2,17h-2.3V8.2h-8.3V17h-2.3c-0.7,0-1,0.8-0.5,1.3l2.9,3l3.5,3.7c0.3,0.3,0.8,0.3,1.1,0l3.5-3.7l2.9-3
			C154.2,17.8,153.9,17,153.2,17z"/>
	</g>
	<g>
		<path class="st0" d="M146.8,31.9c-8,0-14.5-6.5-14.5-14.5v-0.8h2.8v0.8c0,6.4,5.2,11.6,11.6,11.6c6.4,0,11.6-5.2,11.6-11.6v-0.8
			h2.8v0.8C161.2,25.5,154.8,31.9,146.8,31.9z"/>
	</g>
</g>
<text transform="matrix(1 0 0 1 4.85 20.9645)" class="st1 st2 st3">COMING SOON</text>
<g>
	<text transform="matrix(1 0 0 1 31.8656 30.8887)" class="st1 st2 st4">Course Broucher</text>
</g>
</svg>
