<svg id="Layer_1" data-name="Layer 1" xmlns="http://www.w3.org/2000/svg" viewBox="0 0 195 101"><defs><style>.cls-1{fill:#0069ff;}.cls-2,.cls-3{isolation:isolate;fill:#fff;font-family:Poppins-Bold, Poppins;font-weight:700;}.cls-2{font-size:16.78px;}.cls-3{font-size:7.25px;}</style></defs><title>BCC Download Coming</title><path class="cls-1" d="M8.82,29.08C5.57,29.08,3,31.88,3,35.46V65.54C3,69,5.57,71.92,8.82,71.92H143.24L131.83,29.08Z"/><path class="cls-1" d="M186.18,32.55c1.23,0,2.24,1.34,2.24,2.8V65.43a2.56,2.56,0,0,1-2.24,2.8H147.49l-9.73-35.68h48.42m0-3.47H133.29L144.81,71.8h41.37c3.25,0,5.82-2.79,5.82-6.37V35.35c-.11-3.47-2.68-6.27-5.82-6.27Z"/><path class="cls-1" d="M173.77,47.09H171.2V37.25h-9.28v9.84h-2.58a.82.82,0,0,0-.55,1.45L162,51.9,165.94,56a.89.89,0,0,0,1.23,0l3.92-4.14,3.24-3.36A.83.83,0,0,0,173.77,47.09Z"/><path class="cls-1" d="M166.61,63.75A16.23,16.23,0,0,1,150.4,47.54v-.9h3.13v.9a13,13,0,0,0,25.94,0v-.9h3.14v.9A15.9,15.9,0,0,1,166.61,63.75Z"/><text class="cls-2" transform="translate(7.86 51.52)">COMING SOON</text><text class="cls-3" transform="translate(38.08 62.62)">Course Broucher</text></svg>