<?xml version="1.0" encoding="utf-8"?>
<!-- Generator: Adobe Illustrator 23.0.5, SVG Export Plug-In . SVG Version: 6.00 Build 0)  -->
<svg version="1.1" id="Layer_1" xmlns="http://www.w3.org/2000/svg" xmlns:xlink="http://www.w3.org/1999/xlink" x="0px" y="0px"
	 viewBox="0 0 195 101" style="enable-background:new 0 0 195 101;" xml:space="preserve">
<style type="text/css">
	.st0{display:none;}
	.st1{display:inline;fill:#0069FF;}
	.st2{display:inline;}
	.st3{fill:#0069FF;}
	.st4{display:inline;fill:#FFFFFF;}
	.st5{font-family:'Poppins-Bold';}
	.st6{font-size:16.7751px;}
	.st7{fill:#FFFFFF;}
	.st8{font-size:7.2469px;}
	.st9{font-size:17.4406px;}
	.st10{font-size:6.9367px;}
</style>
<g class="st0">
	<path class="st1" d="M8.8,29.1c-3.2,0-5.8,2.8-5.8,6.4v30.1c0,3.5,2.6,6.4,5.8,6.4h134.4l-11.4-42.8H8.8z"/>
	<g class="st2">
		<path class="st3" d="M186.2,32.6c1.2,0,2.2,1.3,2.2,2.8v30.1c0,1.6-1,2.8-2.2,2.8h-38.7l-9.7-35.7H186.2 M186.2,29.1h-52.9
			l11.5,42.7h41.4c3.2,0,5.8-2.8,5.8-6.4V35.3C191.9,31.9,189.3,29.1,186.2,29.1L186.2,29.1z"/>
	</g>
	<g class="st2">
		<g>
			<path class="st3" d="M173.8,47.1h-2.6v-9.8h-9.3v9.8h-2.6c-0.8,0-1.1,0.9-0.6,1.5l3.2,3.4l3.9,4.1c0.3,0.3,0.9,0.3,1.2,0l3.9-4.1
				l3.2-3.4C174.9,48,174.6,47.1,173.8,47.1z"/>
		</g>
		<g>
			<path class="st3" d="M166.6,63.8c-8.9,0-16.2-7.3-16.2-16.2v-0.9h3.1v0.9c0,7.2,5.8,13,13,13c7.2,0,13-5.8,13-13v-0.9h3.1v0.9
				C182.7,56.6,175.6,63.8,166.6,63.8z"/>
		</g>
	</g>
	<text transform="matrix(1 0 0 1 7.8647 51.5225)" class="st4 st5 st6">COMING SOON</text>
	<g class="st2">
		<text transform="matrix(1 0 0 1 38.0776 62.6211)" class="st7 st5 st8">Course Broucher</text>
	</g>
</g>
<g>
	<path class="st3" d="M13.1,30c-3.1,0-5.6,2.7-5.6,6.1v28.8c0,3.3,2.5,6.1,5.6,6.1h128.7l-10.9-41H13.1z"/>
	<g>
		<path class="st3" d="M182.4,33c1.2,0,2.1,1.3,2.1,2.7v28.7c0,1.5-1,2.7-2.1,2.7h-36.9l-9.3-34h46.3 M181.9,30h-50.8l11.1,41h39.7
			c3.1,0,5.6-2.7,5.6-6.1V36C187.4,32.7,184.9,30,181.9,30L181.9,30z"/>
	</g>
	<g>
		<g>
			<path class="st3" d="M171,47h-2.5v-9h-9v9H157c-0.8,0-1.1,0.8-0.5,1.3l3.1,3.1l3.8,3.8c0.3,0.3,0.9,0.3,1.2,0l3.8-3.8l3.1-3.1
				C172.1,47.8,171.8,47,171,47z"/>
		</g>
		<g>
			<path class="st3" d="M162.4,63.3c-7.7-0.8-13.9-8.2-13.9-15.8V47h3v0.5c0,5.8,3.8,11.1,9.5,12.4c8.2,1.9,15.5-4.2,15.5-12.1V47h3
				v0.9C179.6,57.1,171.8,64.3,162.4,63.3z"/>
		</g>
	</g>
	<text transform="matrix(1 0 0 1 17.7607 51.1289)" class="st7 st5 st9">DOWNLOAD</text>
	<g>
		<text transform="matrix(1 0 0 1 40.6113 62.0264)" class="st7 st5 st10">Course Broucher</text>
	</g>
</g>
</svg>
