<svg width="48" height="48" viewBox="0 0 48 48" fill="none" xmlns="http://www.w3.org/2000/svg">
<g clip-path="url(#clip0_1070_602)">
<rect width="48" height="48" fill="white"/>
<path fill-rule="evenodd" clip-rule="evenodd" d="M31.2244 33.0034C29.8137 37.0217 29.0934 41.2496 29.0938 45.5081C29.0938 46.3185 29.1347 47.1698 29.1756 47.9838H47.9421V12.7891C41.5869 16.4652 36.4376 21.9087 33.1207 28.4572C32.4073 29.9393 31.7694 31.4567 31.2095 33.0034" fill="#F9B033"/>
<path fill-rule="evenodd" clip-rule="evenodd" d="M22.4644 18.2301C21.8235 11.6688 19.4763 5.38932 15.6561 0.015625H0.0390625V11.3309C8.02369 11.418 15.8123 13.8142 22.4644 18.2301Z" fill="#32AD6C"/>
<path fill-rule="evenodd" clip-rule="evenodd" d="M20.5938 0C24.5784 6.4907 26.7176 13.9446 26.7811 21.5599C28.0513 22.6384 29.2441 23.8048 30.3507 25.0504C34.4251 17.7943 40.5686 11.9153 47.998 8.16304V0.0446064L20.5938 0.00371661V0Z" fill="#086BD9"/>
<path fill-rule="evenodd" clip-rule="evenodd" d="M17.6473 48.0019H25.0394C24.9985 47.1878 24.9538 46.3366 24.9538 45.5262C24.941 39.8623 26.0796 34.2548 28.3004 29.044C27.7166 28.3006 27.0547 27.624 26.4412 26.9326C25.2441 25.674 23.9539 24.5072 22.5815 23.4422C16.1387 18.3598 8.2058 15.5313 0 15.3906V48.0019H17.6473Z" fill="#086BD9"/>
</g>
<defs>
<clipPath id="clip0_1070_602">
<rect width="48" height="48" fill="white"/>
</clipPath>
</defs>
</svg>
