<?xml version="1.0" encoding="utf-8"?>
<!-- Generator: Adobe Illustrator 23.0.5, SVG Export Plug-In . SVG Version: 6.00 Build 0)  -->
<svg version="1.1" id="Layer_1" xmlns="http://www.w3.org/2000/svg" xmlns:xlink="http://www.w3.org/1999/xlink" x="0px" y="0px"
	 viewBox="0 0 32 32" style="enable-background:new 0 0 32 32;" xml:space="preserve">
<style type="text/css">
	.st0{fill-rule:evenodd;clip-rule:evenodd;fill:#F9B033;}
	.st1{fill-rule:evenodd;clip-rule:evenodd;fill:#32AD6C;}
	.st2{fill-rule:evenodd;clip-rule:evenodd;fill:#086BD9;}
</style>
<g>
	<path class="st0" d="M20.82,21.91c-0.91,2.6-1.41,5.41-1.41,8.34c0,0.54,0.03,1.11,0.06,1.65h4.98h2.77h4.76V8.43
		c-4.24,2.44-7.67,6.09-9.88,10.45C21.62,19.88,21.18,20.88,20.82,21.91"/>
	<path class="st1" d="M14.98,12.06C14.53,7.53,12.9,3.37,10.44-0.1H0.03v7.55C5.54,7.51,10.66,9.21,14.98,12.06z"/>
	<path class="st2" d="M13.73-0.1C16.3,4.1,17.8,9,17.85,14.28c0.86,0.73,1.63,1.49,2.38,2.33C22.95,11.78,27.04,7.83,32,5.34v-5.41
		L13.73-0.1L13.73-0.1z"/>
	<path class="st2" d="M11.76,31.9h4.93c-0.03-0.54-0.06-1.11-0.06-1.65c0-3.9,0.8-7.63,2.24-10.99c-0.39-0.49-0.83-0.95-1.25-1.41
		c-0.8-0.84-1.66-1.62-2.57-2.33C10.91,12.25,5.67,10.27,0,10.16V31.9h8.08H11.76z"/>
</g>
<g>
</g>
<g>
</g>
<g>
</g>
<g>
</g>
<g>
</g>
<g>
</g>
<g>
</g>
<g>
</g>
<g>
</g>
<g>
</g>
<g>
</g>
<g>
</g>
<g>
</g>
<g>
</g>
<g>
</g>
</svg>
