<?xml version="1.0" encoding="utf-8"?>
<!-- Generator: Adobe Illustrator 23.0.5, SVG Export Plug-In . SVG Version: 6.00 Build 0)  -->
<svg version="1.1" id="Layer_1" xmlns="http://www.w3.org/2000/svg" xmlns:xlink="http://www.w3.org/1999/xlink" x="0px" y="0px"
	 viewBox="0 0 841.9 595.3" style="enable-background:new 0 0 841.9 595.3;" xml:space="preserve">
<style type="text/css">
	.st0{fill-rule:evenodd;clip-rule:evenodd;fill:#086BD9;}
	.st1{fill-rule:evenodd;clip-rule:evenodd;fill:#F9B033;}
	.st2{fill-rule:evenodd;clip-rule:evenodd;fill:#32AD6C;}
	.st3{fill:#086BD9;}
	.st4{fill:#045790;}
	.st5{fill:#FFD110;}
	.st6{fill:#EABC5F;}
	.st7{fill:#D99419;}
	.st8{fill:#FFFFFF;}
	.st9{fill:#D0D2D3;}
	.st10{fill:#F1F1F2;}
	.st11{fill:#E7E8E9;}
	.st12{fill:#333333;}
	.st13{font-family:'Poppins-Bold';}
	.st14{font-size:25px;}
</style>
<g>
	<path class="st0" d="M667.4,193.6c5.2-9.4,12.3-16.7,21.5-22c9.2-5.2,19.7-7.9,31.3-7.9c14.3,0,26.5,3.8,36.7,11.4s17,18,20.4,31.1
		H745c-2.4-5.1-5.8-9-10.2-11.6s-9.4-4-15-4c-9,0-16.4,3.2-22,9.5s-8.4,14.8-8.4,25.4c0,10.6,2.8,19.1,8.4,25.4
		c5.6,6.3,12.9,9.5,22,9.5c5.6,0,10.6-1.3,15-4s7.8-6.5,10.2-11.6h32.3c-3.4,13.1-10.2,23.5-20.4,31c-10.2,7.6-22.4,11.3-36.7,11.3
		c-11.7,0-22.1-2.6-31.3-7.9c-9.2-5.2-16.4-12.5-21.5-21.8c-5.2-9.3-7.7-20-7.7-32C659.7,213.7,662.2,203.1,667.4,193.6"/>
	<path class="st0" d="M483.3,259.3c2.7-2.2,4-5.5,4-9.8s-1.4-7.6-4.2-10.1s-6.7-3.6-11.5-3.6h-21.2v26.8H472
		C476.8,262.7,480.6,261.6,483.3,259.3 M450.3,214.2h19.2c4.8,0,8.5-1.1,11.1-3.2s3.9-5.3,3.9-9.4c0-4.1-1.3-7.3-3.9-9.5
		s-6.3-3.3-11.1-3.3h-19.2V214.2z M510.7,234.8c4.2,5.5,6.3,11.7,6.3,18.8c0,10.1-3.5,18.2-10.5,24.1s-16.9,8.9-29.4,8.9H421V165.2
		h54.2c12.3,0,21.8,2.8,28.7,8.5c6.9,5.7,10.4,13.3,10.4,23c0,7.2-1.9,13.1-5.6,17.8s-8.7,8-14.9,9.9
		C500.8,225.8,506.4,229.3,510.7,234.8z"/>
	<path class="st0" d="M536.7,193.6c5.2-9.4,12.3-16.7,21.5-22c9.2-5.2,19.7-7.9,31.3-7.9c14.3,0,26.5,3.8,36.7,11.4s17,18,20.4,31.1
		h-32.3c-2.4-5.1-5.8-9-10.2-11.6s-9.4-4-15-4c-9,0-16.4,3.2-22,9.5s-8.4,14.8-8.4,25.4c0,10.6,2.8,19.1,8.4,25.4
		c5.6,6.3,12.9,9.5,22,9.5c5.6,0,10.6-1.3,15-4s7.8-6.5,10.2-11.6h32.3c-3.4,13.1-10.2,23.5-20.4,31c-10.2,7.6-22.4,11.3-36.7,11.3
		c-11.7,0-22.1-2.6-31.3-7.9c-9.2-5.2-16.4-12.5-21.5-21.8c-5.2-9.3-7.7-20-7.7-32C529,213.7,531.6,203.1,536.7,193.6"/>
	<path class="st1" d="M336.4,250.1c-3.3,9.6-5.1,20-5.1,30.8c0,2,0.1,4.1,0.2,6.1h18h10h17.2v-86.7c-15.3,9-27.7,22.5-35.7,38.6
		C339.3,242.6,337.7,246.3,336.4,250.1"/>
	<path class="st2" d="M315.3,213.7c-1.6-16.7-7.5-32.1-16.4-44.9h-37.6v27.9C281.2,196.9,299.7,203.2,315.3,213.7z"/>
	<path class="st0" d="M310.8,168.8c9.3,15.5,14.7,33.6,14.9,53.1c3.1,2.7,5.9,5.5,8.6,8.6c9.8-17.8,24.6-32.4,42.5-41.6v-20
		L310.8,168.8L310.8,168.8z"/>
	<path class="st0" d="M303.7,287h17.8c-0.1-2-0.2-4.1-0.2-6.1c0-14.4,2.9-28.2,8.1-40.6c-1.4-1.8-3-3.5-4.5-5.2
		c-2.9-3.1-6-6-9.3-8.6c-15-12.1-33.9-19.4-54.4-19.8V287h29.2H303.7z"/>
	<path class="st3" d="M762.4,324.8c0-1.3-0.4-2.3-1.3-3.1s-2-1.1-3.3-1.1c-1.2,0-2.3,0.3-3.1,1.1s-1.4,1.8-1.6,3.1H762.4z
		 M770,326.7c0,0.7,0,1.4-0.2,2.2H753c0.1,1.5,0.6,2.7,1.5,3.5c0.8,0.8,1.9,1.2,3.1,1.2c1.8,0,3.1-0.8,3.8-2.3h7.9
		c-0.4,1.6-1.1,3-2.2,4.3c-1.1,1.3-2.4,2.3-4,3s-3.4,1.1-5.3,1.1c-2.4,0-4.5-0.5-6.3-1.5s-3.3-2.5-4.3-4.4s-1.6-4.1-1.6-6.6
		s0.5-4.7,1.6-6.6s2.4-3.4,4.3-4.4c1.8-1,4-1.5,6.4-1.5c2.3,0,4.4,0.5,6.2,1.5s3.2,2.4,4.3,4.2C769.5,322.2,770,324.3,770,326.7z
		 M732.4,327.1c0-1.9-0.5-3.3-1.6-4.4c-1-1.1-2.3-1.6-3.8-1.6s-2.7,0.5-3.8,1.6s-1.6,2.5-1.6,4.4s0.5,3.4,1.6,4.4s2.3,1.7,3.8,1.7
		s2.7-0.5,3.8-1.6S732.4,329,732.4,327.1z M725,314.6c1.7,0,3.2,0.3,4.5,1s2.3,1.6,3,2.7v-3.5h7.4v24.3c0,2.2-0.4,4.3-1.3,6.1
		s-2.2,3.3-4,4.3s-4,1.6-6.7,1.6c-3.6,0-6.5-0.8-8.7-2.5s-3.5-4-3.8-6.9h7.3c0.2,0.9,0.8,1.7,1.7,2.2s2,0.8,3.2,0.8
		c1.5,0,2.7-0.4,3.7-1.3s1.4-2.3,1.4-4.2v-3.5c-0.7,1.1-1.7,2-3,2.8c-1.3,0.7-2.8,1.1-4.5,1.1c-2,0-3.8-0.5-5.4-1.6
		s-2.9-2.5-3.8-4.4c-0.9-1.9-1.4-4.1-1.4-6.6s0.5-4.7,1.4-6.6s2.2-3.4,3.8-4.4C721.2,315.1,723,314.6,725,314.6z M702.2,324.8
		c0-1.3-0.4-2.3-1.3-3.1s-2-1.1-3.3-1.1c-1.2,0-2.3,0.3-3.1,1.1s-1.4,1.8-1.6,3.1H702.2z M709.8,326.7c0,0.7,0,1.4-0.2,2.2h-16.8
		c0.1,1.5,0.6,2.7,1.5,3.5c0.8,0.8,1.9,1.2,3.1,1.2c1.8,0,3.1-0.8,3.8-2.3h7.9c-0.4,1.6-1.1,3-2.2,4.3c-1.1,1.3-2.4,2.3-4,3
		s-3.4,1.1-5.3,1.1c-2.4,0-4.5-0.5-6.3-1.5s-3.3-2.5-4.3-4.4s-1.6-4.1-1.6-6.6s0.5-4.7,1.6-6.6s2.4-3.4,4.3-4.4s4-1.5,6.4-1.5
		c2.3,0,4.4,0.5,6.2,1.5s3.2,2.4,4.3,4.2C709.3,322.2,709.8,324.3,709.8,326.7z M679.5,307v32.3h-7.4V307H679.5z M664.7,307v32.3
		h-7.4V307H664.7z M638.6,333.2c1.4,0,2.6-0.5,3.6-1.6s1.5-2.5,1.5-4.5s-0.5-3.5-1.5-4.5c-1-1.1-2.1-1.6-3.6-1.6s-2.6,0.5-3.6,1.6
		s-1.4,2.5-1.4,4.5s0.5,3.5,1.4,4.5C636,332.7,637.2,333.2,638.6,333.2z M638.6,339.7c-2.4,0-4.5-0.5-6.4-1.5s-3.4-2.5-4.5-4.4
		s-1.6-4.1-1.6-6.6s0.5-4.7,1.7-6.6s2.6-3.4,4.5-4.4s4-1.5,6.4-1.5s4.5,0.5,6.4,1.5s3.4,2.5,4.5,4.4s1.7,4.1,1.7,6.6
		s-0.5,4.7-1.7,6.6s-2.6,3.4-4.5,4.4S641,339.7,638.6,339.7z M591.3,324c0-3,0.6-5.8,2-8.1c1.3-2.4,3.1-4.2,5.5-5.6s5-2,7.9-2
		c3.6,0,6.7,1,9.3,2.9s4.3,4.5,5.2,7.9h-8.1c-0.6-1.3-1.5-2.2-2.6-2.9c-1.1-0.7-2.4-1-3.8-1c-2.3,0-4.1,0.8-5.6,2.4
		c-1.4,1.6-2.1,3.8-2.1,6.4s0.7,4.8,2.1,6.4c1.4,1.6,3.3,2.4,5.6,2.4c1.4,0,2.7-0.3,3.8-1s2-1.7,2.6-2.9h8.1c-0.9,3.3-2.6,6-5.2,7.9
		c-2.6,1.9-5.7,2.9-9.3,2.9c-2.9,0-5.6-0.7-7.9-2s-4.1-3.2-5.5-5.5S591.3,327,591.3,324z M569.8,324.8c0-1.3-0.4-2.3-1.3-3.1
		s-2-1.1-3.3-1.1c-1.2,0-2.3,0.3-3.1,1.1s-1.4,1.8-1.6,3.1H569.8z M577.4,326.7c0,0.7,0,1.4-0.2,2.2h-16.8c0.1,1.5,0.6,2.7,1.5,3.5
		c0.8,0.8,1.9,1.2,3.1,1.2c1.8,0,3.1-0.8,3.8-2.3h7.9c-0.4,1.6-1.1,3-2.2,4.3c-1.1,1.3-2.4,2.3-4,3s-3.4,1.1-5.3,1.1
		c-2.4,0-4.5-0.5-6.3-1.5s-3.3-2.5-4.3-4.4s-1.6-4.1-1.6-6.6s0.5-4.7,1.6-6.6s2.4-3.4,4.3-4.4c1.8-1,4-1.5,6.4-1.5
		c2.3,0,4.4,0.5,6.2,1.5s3.2,2.4,4.3,4.2C576.9,322.2,577.4,324.3,577.4,326.7z M536.3,332.3l5.3-17.4h7.9l-8.6,24.4h-9.1l-8.6-24.4
		h7.9L536.3,332.3z M518,315v24.4h-7.4V315H518z M514.3,312.5c-1.3,0-2.3-0.4-3.2-1.2c-0.8-0.8-1.2-1.7-1.2-2.9s0.4-2.1,1.2-2.9
		s1.9-1.2,3.2-1.2s2.3,0.4,3.1,1.2c0.8,0.8,1.2,1.8,1.2,2.9s-0.4,2.1-1.2,2.9C516.6,312.1,515.6,312.5,514.3,312.5z M504.4,333v6.3
		h-3.8c-2.7,0-4.8-0.7-6.3-2s-2.2-3.5-2.2-6.5v-9.7h-2.9v-6.2h2.9V309h7.4v6h4.9v6.2h-4.9v9.8c0,0.7,0.2,1.3,0.5,1.6
		c0.3,0.3,0.9,0.5,1.8,0.5h2.6V333z M476,327.1c0-1.9-0.5-3.3-1.6-4.4s-2.3-1.6-3.8-1.6s-2.7,0.5-3.8,1.6s-1.6,2.5-1.6,4.4
		s0.5,3.4,1.6,4.4s2.3,1.7,3.8,1.7s2.7-0.5,3.8-1.6C475.5,330.5,476,329,476,327.1z M457.9,327.1c0-2.5,0.5-4.7,1.4-6.6
		s2.2-3.4,3.9-4.4c1.6-1,3.4-1.5,5.4-1.5c1.7,0,3.2,0.3,4.5,1s2.3,1.6,3,2.7v-3.5h7.4v24.4H476v-3.5c-0.7,1.1-1.7,2-3,2.7
		s-2.8,1.1-4.5,1.1c-2,0-3.8-0.5-5.4-1.6s-2.9-2.5-3.9-4.4C458.4,331.8,457.9,329.6,457.9,327.1z M445.8,324.8
		c0-1.3-0.4-2.3-1.3-3.1s-2-1.1-3.3-1.1c-1.2,0-2.3,0.3-3.1,1.1s-1.4,1.8-1.6,3.1H445.8z M453.4,326.7c0,0.7,0,1.4-0.1,2.2h-16.8
		c0.1,1.5,0.6,2.7,1.5,3.5c0.8,0.8,1.9,1.2,3.1,1.2c1.9,0,3.1-0.8,3.9-2.3h7.9c-0.4,1.6-1.1,3-2.2,4.3s-2.4,2.3-4,3
		s-3.4,1.1-5.3,1.1c-2.4,0-4.5-0.5-6.3-1.5s-3.3-2.5-4.3-4.4s-1.6-4.1-1.6-6.6s0.5-4.7,1.6-6.6s2.4-3.4,4.3-4.4s4-1.5,6.4-1.5
		c2.3,0,4.4,0.5,6.2,1.5s3.2,2.4,4.3,4.2C452.9,322.2,453.4,324.3,453.4,326.7z M417.4,319c0.9-1.3,2-2.4,3.3-3.2
		c1.3-0.8,2.7-1.2,4.3-1.2v7.9h-2c-1.9,0-3.2,0.4-4.1,1.2c-0.9,0.8-1.4,2.2-1.4,4.2v11.3h-7.4v-24.4h7.4L417.4,319L417.4,319
		L417.4,319z M373.7,324c0-3,0.6-5.8,2-8.1c1.3-2.4,3.1-4.2,5.5-5.6s5-2,7.9-2c3.6,0,6.7,1,9.3,2.9c2.6,1.9,4.3,4.5,5.2,7.9h-8.1
		c-0.6-1.3-1.5-2.2-2.6-2.9c-1.1-0.7-2.4-1-3.8-1c-2.3,0-4.1,0.8-5.6,2.4c-1.4,1.6-2.1,3.8-2.1,6.4s0.7,4.8,2.1,6.4s3.3,2.4,5.6,2.4
		c1.4,0,2.7-0.3,3.8-1s2-1.7,2.6-2.9h8.1c-0.9,3.3-2.6,6-5.2,7.9s-5.6,2.9-9.3,2.9c-2.9,0-5.6-0.7-7.9-2s-4.1-3.2-5.5-5.5
		C374.3,329.7,373.7,327,373.7,324z M360.2,321.2h-4v18.2h-7.4v-18.2h-2.7V315h2.7v-0.7c0-3,0.8-5.3,2.5-6.8
		c1.7-1.6,4.2-2.3,7.5-2.3c0.5,0,1,0,1.2,0v6.3c-1.4-0.1-2.4,0.1-3,0.6s-0.9,1.4-0.9,2.7v0.2h4L360.2,321.2L360.2,321.2z
		 M342.5,321.2h-4v18.2h-7.4v-18.2h-2.7V315h2.7v-0.7c0-3,0.8-5.3,2.5-6.8c1.7-1.6,4.2-2.3,7.5-2.3c0.5,0,1,0,1.2,0v6.3
		c-1.4-0.1-2.4,0.1-3,0.6s-0.9,1.4-0.9,2.7v0.2h4L342.5,321.2L342.5,321.2z M323,315v24.4h-7.4V336c-0.7,1.1-1.8,2-3.1,2.6
		c-1.3,0.6-2.7,1-4.3,1c-1.9,0-3.5-0.4-4.9-1.3s-2.5-2-3.3-3.6s-1.2-3.4-1.2-5.6v-14.2h7.4v13.3c0,1.6,0.4,2.9,1.3,3.8
		s2,1.4,3.4,1.4c1.5,0,2.6-0.4,3.4-1.4s1.3-2.1,1.3-3.8V315H323L323,315L323,315z M281.4,333.3c1.2,0,2.2-0.3,2.9-0.8
		c0.7-0.6,1-1.4,1-2.5s-0.3-1.9-1.1-2.5s-1.7-0.9-2.9-0.9h-5.4v6.8L281.4,333.3L281.4,333.3z M275.9,321.1h4.9
		c1.2,0,2.1-0.3,2.8-0.8c0.6-0.5,1-1.3,1-2.4c0-1-0.3-1.9-1-2.4c-0.6-0.5-1.6-0.8-2.8-0.8h-4.9V321.1z M286.9,323.6
		c1.8,0.4,3.2,1.3,4.2,2.6c1.1,1.4,1.6,3,1.6,4.7c0,2.6-0.9,4.6-2.7,6.1c-1.8,1.5-4.2,2.2-7.4,2.2h-14.2v-30.6h13.7
		c3.1,0,5.5,0.7,7.3,2.1s2.6,3.4,2.6,5.8c0,1.8-0.5,3.3-1.4,4.5C289.7,322.3,288.5,323.1,286.9,323.6z"/>
	<polygon class="st4" points="78.2,292.7 76.5,292.7 76.5,295.6 75,295.6 75,292.7 73.1,292.7 73.1,295.9 71.5,295.9 71.5,290.6 
		79.9,290.6 79.9,295.9 78.2,295.9 	"/>
	<path class="st4" d="M79.3,302.9c-0.3,0.7-0.8,1.2-1.5,1.6c-0.6,0.4-1.4,0.6-2.2,0.6c-0.8,0-1.6-0.2-2.2-0.6s-1.1-0.9-1.5-1.6
		c-0.3-0.7-0.5-1.5-0.5-2.4v-3.2h8.4v3.2C79.9,301.4,79.7,302.2,79.3,302.9z M73.9,302.2c0.4,0.4,1,0.7,1.8,0.7s1.4-0.2,1.8-0.7
		s0.7-1.1,0.7-1.9v-1h-4.9v1C73.3,301.2,73.5,301.8,73.9,302.2z"/>
	<path class="st4" d="M80.1,307.8l-5,0.6c-0.5,0.1-0.9,0.2-1.1,0.5s-0.3,0.7-0.3,1.2s0.2,0.8,0.5,1.1s0.7,0.3,1.2,0.3l5-0.6l0.3,2.1
		l-5,0.6c-0.7,0.1-1.4,0-1.9-0.3s-1-0.6-1.3-1.2s-0.5-1.1-0.6-1.8c-0.1-0.7,0-1.3,0.2-1.9s0.5-1,1-1.4s1.1-0.6,1.8-0.7l5-0.6
		L80.1,307.8z"/>
	<path class="st4" d="M79,314.4c0.7,0.2,1.3,0.6,1.9,1.1c0.5,0.5,0.9,1.2,1.1,2c0.3,1,0.2,1.9-0.1,2.7s-0.9,1.5-1.7,2l-0.6-2.2
		c0.3-0.3,0.5-0.6,0.6-0.9s0.1-0.7,0-1.1c-0.2-0.6-0.5-1.1-1-1.4s-1.1-0.3-1.8-0.1s-1.2,0.5-1.5,1s-0.4,1.1-0.2,1.7
		c0.1,0.4,0.3,0.7,0.5,1s0.6,0.4,1,0.5l0.6,2.2c-0.9,0-1.8-0.3-2.4-0.9c-0.7-0.6-1.2-1.4-1.4-2.3c-0.2-0.8-0.2-1.6-0.1-2.3
		s0.5-1.4,1.1-1.9c0.5-0.5,1.2-0.9,2-1.1C77.5,314.3,78.3,314.3,79,314.4z"/>
	<path class="st4" d="M78.9,329.8l-1.3-3l-1.6,0.1l-0.9-2l8.9-0.4l0.9,2.2l-6.5,6.1l-0.9-2L78.9,329.8z M80.2,328.7l2.4-2.2
		l-3.2,0.2L80.2,328.7z"/>
	<polygon class="st4" points="89.7,335.4 88.3,336.2 87.2,334.2 81.3,337.6 80.3,335.8 86.1,332.4 85,330.4 86.4,329.6 	"/>
	
		<rect x="83.2" y="338.1" transform="matrix(0.8209 -0.571 0.571 0.8209 -177.9925 110.6329)" class="st4" width="8.4" height="2.1"/>
	<path class="st4" d="M87.1,345.2c-0.2-0.8-0.1-1.5,0.1-2.2s0.7-1.4,1.3-1.9c0.6-0.5,1.3-0.9,2.1-1c0.8-0.1,1.5,0,2.2,0.2
		s1.3,0.7,1.9,1.3s0.9,1.3,1,2c0.2,0.8,0.1,1.5-0.1,2.2s-0.7,1.4-1.3,1.9s-1.3,0.9-2.1,1s-1.5,0.1-2.2-0.2c-0.7-0.3-1.3-0.7-1.9-1.3
		S87.3,345.9,87.1,345.2z M91.2,346.8c0.6,0,1.2-0.2,1.8-0.7c0.6-0.5,0.9-1,0.9-1.6s-0.1-1.2-0.6-1.7s-1-0.8-1.6-0.8
		s-1.2,0.2-1.8,0.7c-0.6,0.5-0.9,1-0.9,1.6s0.1,1.2,0.6,1.7C90,346.5,90.6,346.8,91.2,346.8z"/>
	<polygon class="st4" points="98.1,356.9 96.6,355.5 97.4,349.3 93.9,353.1 92.4,351.7 97.9,345.5 99.5,346.9 98.7,353.1 
		102.1,349.2 103.7,350.6 	"/>
	<path class="st4" d="M105.1,359.9l-2.7-1.8l-1.3,0.9l-1.8-1.2l7.3-5.2l2,1.4l-2.1,8.7l-1.8-1.2L105.1,359.9z M105.5,358.3l0.8-3.1
		l-2.6,2L105.5,358.3z"/>
	<polygon class="st4" points="110.4,362.8 112.8,364.1 112.1,365.5 107.8,363.3 111.7,355.8 113.6,356.8 	"/>
	<path class="st4" d="M121.5,367.6l-3-1.1l-1,1.2l-2.1-0.7l5.7-6.9l2.3,0.8l0.2,9l-2.1-0.7V367.6z M121.5,366v-3.3l-2,2.5L121.5,366
		z"/>
	<polygon class="st4" points="132.6,371.9 130.5,371.5 128.2,365.7 127.1,370.8 125.1,370.3 126.8,362.1 128.8,362.5 131.2,368.3 
		132.3,363.3 134.3,363.7 	"/>
	<path class="st4" d="M140.8,364.7c0.6,0.4,1.1,0.9,1.5,1.6s0.5,1.4,0.4,2.2c-0.1,0.8-0.3,1.5-0.7,2.1s-1,1.1-1.7,1.4
		s-1.5,0.4-2.4,0.4l-3.2-0.2l0.6-8.4l3.2,0.2C139.4,364.1,140.2,364.3,140.8,364.7z M139.8,370.1c0.5-0.4,0.7-1,0.8-1.7
		c0.1-0.8-0.1-1.4-0.5-1.9s-1-0.7-1.8-0.8l-1-0.1l-0.4,4.9l1,0.1C138.7,370.7,139.3,370.5,139.8,370.1z"/>
	<path class="st4" d="M146.5,366.3c0.3-0.7,0.8-1.2,1.4-1.6c0.6-0.4,1.4-0.7,2.2-0.8c1-0.1,1.9,0.1,2.7,0.5c0.8,0.5,1.3,1.1,1.6,2
		l-2.3,0.2c-0.2-0.3-0.5-0.6-0.8-0.7s-0.7-0.2-1.1-0.2c-0.6,0.1-1.1,0.3-1.5,0.8s-0.5,1.1-0.4,1.8s0.3,1.3,0.8,1.7s1,0.6,1.6,0.5
		c0.4,0,0.8-0.2,1-0.4s0.5-0.5,0.6-0.9l2.3-0.2c-0.2,0.9-0.6,1.7-1.3,2.3s-1.5,0.9-2.5,1c-0.8,0.1-1.6,0-2.3-0.3s-1.3-0.8-1.7-1.4
		s-0.7-1.3-0.8-2.1S146.2,367,146.5,366.3z"/>
	<polygon class="st4" points="162.2,361.8 164,370 162,370.5 161.2,367.1 158,367.8 158.8,371.2 156.7,371.6 154.9,363.5 156.9,363 
		157.6,366.2 160.8,365.5 160.1,362.3 	"/>
	<path class="st4" d="M170.5,366.2l-3,1.1v1.6l-2.1,0.8v-9l2.3-0.8l5.8,6.8l-2.1,0.8L170.5,366.2z M169.5,364.9l-2.1-2.5l0.1,3.3
		L169.5,364.9z"/>
	<path class="st4" d="M178.8,363.9l-3.1-2l-0.4,0.2l1.5,2.8l-1.9,1l-3.9-7.5l3.1-1.6c0.6-0.3,1.2-0.5,1.7-0.5s1,0.1,1.4,0.4
		s0.7,0.6,0.9,1c0.3,0.5,0.3,1,0.3,1.5c-0.1,0.5-0.4,1-0.8,1.5l3.3,2L178.8,363.9z M174.7,360.9l1.2-0.6c0.3-0.2,0.6-0.4,0.6-0.6
		s0.1-0.5-0.1-0.8c-0.1-0.3-0.4-0.5-0.6-0.5c-0.3-0.1-0.6,0-0.9,0.1l-1.2,0.6L174.7,360.9z"/>
	
		<rect x="179.9" y="353.6" transform="matrix(0.8461 -0.5331 0.5331 0.8461 -162.8814 151.5457)" class="st4" width="2.1" height="8.4"/>
	<polygon class="st4" points="185.6,349.4 186.5,350.7 184.7,352.1 188.7,357.5 187.1,358.7 183,353.3 181.2,354.7 180.2,353.4 	"/>
	<path class="st4" d="M194.6,350.4l-2.3,2.2l0.6,1.4l-1.6,1.5l-3.5-8.2l1.8-1.7l8,3.9L196,351L194.6,350.4z M193.2,349.6l-2.9-1.5
		l1.4,3L193.2,349.6z"/>
	<path class="st4" d="M199.9,341.2c0.5,0,0.9,0.2,1.3,0.5c0.5,0.4,0.8,1,0.8,1.6s-0.3,1.3-0.9,2l-2.5,3.1l-6.5-5.3l2.4-3
		c0.6-0.7,1.1-1.1,1.8-1.2s1.2,0,1.7,0.4c0.4,0.3,0.6,0.7,0.7,1.1c0.1,0.4,0,0.8-0.1,1.3C199,341.3,199.4,341.2,199.9,341.2z
		 M196.1,343.6l0.9-1.1c0.2-0.3,0.3-0.5,0.3-0.8c0-0.2-0.1-0.4-0.3-0.6s-0.4-0.3-0.7-0.2s-0.5,0.2-0.7,0.5l-0.9,1.1L196.1,343.6z
		 M200,343.8c0-0.3-0.1-0.5-0.3-0.6s-0.5-0.3-0.7-0.2c-0.3,0-0.5,0.2-0.7,0.5l-1,1.2l1.4,1.2l1-1.2C199.9,344.3,200,344,200,343.8z"
		/>
	<polygon class="st4" points="203.7,339.1 205.2,336.8 206.5,337.6 203.9,341.7 196.9,337.1 198,335.4 	"/>
	<polygon class="st4" points="202.2,331.4 203.7,332.2 205.1,329.7 206.4,330.5 205.1,332.9 206.8,333.8 208.3,331 209.7,331.7 
		207.2,336.4 199.8,332.5 202.3,327.8 203.7,328.6 	"/>
	<polygon class="st4" points="205.7,318.9 207.2,319.5 206.5,321.6 212.8,323.8 212.1,325.8 205.8,323.6 205,325.8 203.5,325.2 	"/>
	<path class="st4" d="M215,315.9l-3.5,1.1l-0.1,0.5l3.1,0.7l-0.5,2l-8.2-1.8l0.8-3.4c0.1-0.7,0.4-1.2,0.7-1.6s0.7-0.7,1.2-0.8
		c0.4-0.1,0.9-0.2,1.4-0.1s1,0.4,1.4,0.8s0.6,0.9,0.6,1.6l3.7-1.2L215,315.9z M210,317.1l0.3-1.3c0.1-0.4,0.1-0.7-0.1-0.9
		s-0.4-0.4-0.7-0.5s-0.6,0-0.8,0.1s-0.4,0.4-0.5,0.8l-0.3,1.3L210,317.1z"/>
	<path class="st4" d="M207.6,309l5,0.5c0.5,0,0.9,0,1.2-0.3s0.5-0.6,0.5-1.1s-0.1-0.9-0.3-1.2c-0.3-0.3-0.6-0.5-1.1-0.5l-5-0.5
		l0.2-2.1l5,0.5c0.8,0.1,1.4,0.3,1.9,0.7s0.8,0.9,1.1,1.4s0.3,1.2,0.2,1.9s-0.2,1.3-0.6,1.8s-0.7,0.9-1.3,1.2s-1.2,0.4-1.9,0.3
		l-5-0.5L207.6,309z"/>
	<path class="st4" d="M216.1,301.4c-0.2,0.5-0.5,0.9-0.9,1.2s-0.9,0.5-1.4,0.5v-2.2c0.3,0,0.6-0.1,0.7-0.3s0.2-0.4,0.2-0.7
		s-0.1-0.6-0.2-0.7s-0.3-0.3-0.6-0.3c-0.2,0-0.4,0.1-0.5,0.2s-0.3,0.3-0.3,0.5c-0.1,0.2-0.2,0.5-0.3,0.9c-0.2,0.6-0.3,1-0.5,1.4
		s-0.4,0.7-0.7,0.9s-0.8,0.4-1.3,0.4c-0.8,0-1.4-0.3-1.8-0.9s-0.7-1.3-0.7-2.3s0.2-1.7,0.7-2.3c0.4-0.6,1.1-0.9,1.9-0.9v2.3
		c-0.3,0-0.5,0.1-0.6,0.3s-0.2,0.4-0.2,0.7c0,0.3,0.1,0.5,0.2,0.6c0.1,0.2,0.3,0.2,0.6,0.2s0.5-0.1,0.6-0.4s0.3-0.7,0.5-1.2
		c0.2-0.6,0.4-1,0.5-1.4c0.2-0.4,0.4-0.6,0.7-0.9s0.7-0.4,1.2-0.4s0.9,0.1,1.3,0.4s0.7,0.6,0.9,1.1s0.4,1,0.4,1.7
		C216.4,300.3,216.3,300.9,216.1,301.4z"/>
	<polygon class="st4" points="208,289.1 209.6,289.1 209.6,291.3 216.4,291.3 216.4,293.4 209.6,293.4 209.6,295.7 208,295.7 	"/>
	<path class="st5" d="M201.8,276.7c0,31.9-25.9,77-57.8,77c-53.5-2.6-60-43.5-57.8-77v-27.5c0-31.9,25.9-57.8,57.8-57.8
		s57.8,25.9,57.8,57.8V276.7z"/>
	<path class="st4" d="M144,353.7c-15.5,0-30.1-6-41.1-17s-17-25.5-17-41v-46.4c0-15.5,6-30.1,17-41.1s25.6-17,41.1-17
		s30.1,6,41.1,17s17,25.6,17,41.1v46.4c0,15.5-6,30.1-17,41C174.1,347.7,159.5,353.7,144,353.7z M144,191.7
		c-31.7,0-57.5,25.8-57.5,57.5v46.4c0,31.7,25.8,57.5,57.5,57.5s57.5-25.8,57.5-57.5v-46.4C201.5,217.5,175.7,191.7,144,191.7z"/>
	<path class="st6" d="M141.5,352c-0.1-22-2.1-35.4-11.3-43.5c-6.8-6-9.2-13.7-9.3-17c-0.2-5.2-0.9-11.5-1.3-16.7
		c-0.8-12.7-8.5-13.2-8.5-13.2l-0.5-0.1c-2.4-5.7-6.6-6.2-7-6.2c-2.8-6-8.1-6-8.1-6v9c-2.8-3.1-6.2-3.1-6.2-3.1v25.2
		c-1.8-0.6-3.2-0.4-3.2-0.4v18.3c0,30.5,24.7,55.2,55.2,55.2l0.2-0.2C141.5,352.8,141.5,352.4,141.5,352z"/>
	<path class="st7" d="M141.4,342.8c-30.5,0-55.2-24.7-55.2-55.2v10.6c0,30.5,24.7,55.2,55.2,55.2l0.2-0.2c0-0.4,0-0.9,0-1.3
		C141.5,348.7,141.5,345.7,141.4,342.8z"/>
	<path class="st4" d="M141.4,353.7c-30.6,0-55.5-24.9-55.5-55.5V280c0-0.1,0.1-0.3,0.2-0.3s8.6-1,10.8,10.9
		c2.4,12.3,5.8,21,14.8,23.5c1.4,0.4,2.9,0.8,4.4,1.2c8.1,2.1,15.7,4,19.7,9.6c5,7,6,15.7,6,28.4l-0.1,0.2l-0.2,0.2L141.4,353.7z
		 M86.4,280.2v18c0,30.3,24.6,54.9,54.8,54.9l0,0c0-12.5-1-21.1-5.9-28c-3.9-5.5-11.4-7.4-19.4-9.4c-1.4-0.4-2.9-0.8-4.4-1.2
		c-9.8-2.7-13.1-13.1-15.2-23.9C94.4,280.3,87.8,280.1,86.4,280.2z"/>
	<path class="st4" d="M101.8,294.7c-0.1,0-0.2-0.1-0.3-0.2c-1-4.9-2.3-18.8-2.8-26.6c-0.7-11-7.6-12.3-9.1-12.4v24.9
		c0,0.1-0.1,0.3-0.3,0.3s-0.3-0.1-0.3-0.3v-25.2c0-0.1,0.1-0.3,0.3-0.3c0.1,0,9.1,0.1,9.9,12.9c0.5,7.8,1.8,21.6,2.8,26.5
		C102.1,294.5,102,294.6,101.8,294.7L101.8,294.7z"/>
	<path class="st4" d="M114.4,292.3c-0.1,0-0.2-0.1-0.3-0.2c-1-4.7-1.6-14.7-2.2-23.7c-0.8-12.3-8.2-12.9-8.3-12.9
		c-0.2,0-0.3-0.1-0.3-0.3s0.1-0.3,0.3-0.3c0.1,0,8,0.7,8.8,13.4c0.4,6.5,1.2,18.6,2.2,23.7C114.7,292.1,114.6,292.3,114.4,292.3
		L114.4,292.3z"/>
	<path class="st4" d="M141.5,353.5c-0.1,0-0.3-0.1-0.3-0.3c0-22.5-1.8-36.3-11.2-44.6c-6.7-5.9-9.3-13.5-9.4-17.2
		c-0.1-3.1-0.4-6.6-0.7-10c-0.2-2.4-0.4-4.6-0.5-6.7c-0.8-12.3-8.2-12.9-8.3-12.9c-0.2,0-0.3-0.1-0.3-0.3s0.1-0.3,0.3-0.3
		c0.1,0,8,0.7,8.8,13.4c0.1,2.1,0.3,4.3,0.5,6.6c0.3,3.4,0.6,7,0.7,10.1c0.1,3.6,2.6,11.1,9.2,16.8c9.6,8.4,11.4,22.3,11.4,45
		C141.8,353.4,141.7,353.5,141.5,353.5z"/>
	<path class="st4" d="M107.8,293.2c-0.1,0-0.2-0.1-0.3-0.2c-0.9-4.6-1.9-20.9-2.5-29.6l-0.1-1.4c-0.7-11-7.6-12.3-9.1-12.4v8.7
		c0,0.1-0.1,0.3-0.3,0.3c-0.2,0-0.3-0.1-0.3-0.3v-9c0-0.1,0.1-0.3,0.3-0.3c0.1,0,9.1,0.1,9.9,12.9l0.1,1.4c0.5,8.7,1.6,25,2.5,29.6
		C108.1,293,108,293.2,107.8,293.2L107.8,293.2z"/>
	<path class="st4" d="M99.8,295.2c-0.1,0-0.2-0.1-0.3-0.2c0-0.1,0.1-0.3,0.2-0.3l16.1-2.9c0.2,0,0.3,0.1,0.3,0.2s-0.1,0.3-0.2,0.3
		L99.8,295.2L99.8,295.2z"/>
	<path class="st6" d="M146.4,353.2l0.2,0.2c30.5,0,55.2-24.7,55.2-55.2V280c0,0-1.4-0.2-3.2,0.4v-25.2c0,0-3.4,0-6.2,3.1v-9
		c0,0-5.4,0-8.1,6c-0.4,0-4.6,0.6-7,6.2l-0.5,0.1c0,0-7.7,0.5-8.5,13.2c-0.3,5.2-1.1,11.5-1.3,16.7c-0.1,3.4-2.5,11.1-9.3,17
		c-9.2,8.1-11.3,21.5-11.3,43.5C146.4,352.4,146.4,352.8,146.4,353.2z"/>
	<path class="st7" d="M146.6,342.8c30.5,0,55.2-24.7,55.2-55.2v10.6c0,30.5-24.7,55.2-55.2,55.2l-0.2-0.2c0-0.4,0-0.9,0-1.3
		C146.4,348.7,146.5,345.7,146.6,342.8z"/>
	<path class="st4" d="M146.5,353.7l-0.2-0.1l-0.2-0.2l-0.1-0.2c0-12.7,1-21.4,6-28.4c4-5.6,11.6-7.6,19.7-9.6
		c1.4-0.4,2.9-0.8,4.4-1.2c9-2.5,12.4-11.2,14.8-23.5c2.3-11.9,10.8-10.9,10.9-10.9c0.1,0,0.2,0.1,0.2,0.3v18.3
		C202,328.8,177.1,353.7,146.5,353.7z M146.6,353.1L146.6,353.1c30.3-0.1,54.8-24.7,54.8-54.9v-18c-1.4-0.1-8,0-10,10.5
		c-2.1,10.8-5.4,21.1-15.2,23.9c-1.5,0.4-2.9,0.8-4.4,1.2c-8,2-15.5,4-19.4,9.4C147.6,332,146.7,340.6,146.6,353.1z"/>
	<path class="st4" d="M186.1,294.7L186.1,294.7c-0.2,0-0.3-0.2-0.3-0.3c1-4.9,2.3-18.7,2.8-26.5c0.8-12.8,9.8-12.9,9.9-12.9
		c0.1,0,0.3,0.1,0.3,0.3v25.2c0,0.1-0.1,0.3-0.3,0.3s-0.3-0.1-0.3-0.3v-24.9c-0.6,0.1-2.4,0.3-4.1,1.5c-2.9,2-4.7,5.8-5,10.9
		c-0.5,7.8-1.8,21.7-2.8,26.6C186.4,294.6,186.3,294.7,186.1,294.7z"/>
	<path class="st4" d="M173.6,292.3L173.6,292.3c-0.2,0-0.3-0.2-0.3-0.3c1-5.1,1.8-17.2,2.2-23.7c0.8-12.8,8.7-13.4,8.8-13.4
		s0.3,0.1,0.3,0.3s-0.1,0.3-0.3,0.3c-0.3,0-7.5,0.7-8.3,12.9c-0.4,6.5-1.2,18.6-2.2,23.7C173.8,292.2,173.7,292.3,173.6,292.3z"/>
	<path class="st4" d="M146.4,353.5c-0.1,0-0.3-0.1-0.3-0.3c0-22.7,1.8-36.6,11.4-45c6.6-5.8,9.1-13.2,9.2-16.8
		c0.1-3.1,0.4-6.7,0.7-10.1c0.2-2.3,0.4-4.6,0.5-6.6c0.8-12.8,8.7-13.4,8.8-13.4s0.3,0.1,0.3,0.3s-0.1,0.3-0.3,0.3
		c-0.3,0-7.5,0.7-8.3,12.9c-0.1,2.1-0.3,4.3-0.5,6.6c-0.3,3.4-0.6,7-0.7,10c-0.1,3.7-2.7,11.4-9.4,17.2
		c-9.4,8.3-11.2,22.1-11.2,44.6C146.6,353.4,146.5,353.5,146.4,353.5z"/>
	<path class="st4" d="M180.1,293.2L180.1,293.2c-0.2,0-0.3-0.2-0.3-0.3c0.9-4.6,1.9-20.8,2.5-29.5l0.1-1.5
		c0.8-12.8,9.8-12.9,9.9-12.9c0.1,0,0.3,0.1,0.3,0.3v9c0,0.1-0.1,0.3-0.3,0.3c-0.1,0-0.3-0.1-0.3-0.3v-8.7c-0.6,0.1-2.4,0.3-4.1,1.5
		c-2.9,2-4.7,5.8-5,10.9l-0.1,1.5c-0.5,8.7-1.6,25-2.5,29.6C180.4,293.1,180.2,293.2,180.1,293.2z"/>
	<path class="st4" d="M188.1,295.2L188.1,295.2l-16.2-2.9c-0.1,0-0.3-0.2-0.2-0.3s0.2-0.3,0.3-0.2l16.1,2.9c0.1,0,0.3,0.2,0.2,0.3
		C188.4,295.2,188.2,295.2,188.1,295.2z"/>
	<path class="st4" d="M144,384.5c-22.3,0-43.2-8.5-58.9-24s-24.4-36.1-24.4-58V246c0-21.9,8.7-42.6,24.4-58.1s36.7-24,58.9-24
		s43.2,8.5,58.9,24s24.4,36.1,24.4,58.1v56.5c0,21.9-8.7,42.5-24.4,58C187.1,375.9,166.2,384.5,144,384.5z M144,165.4
		c-45.1,0-81.7,36.1-81.7,80.5v56.5c0,44.4,36.7,80.5,81.7,80.5s81.7-36.1,81.7-80.5v-56.5C225.7,201.5,189,165.4,144,165.4z"/>
	<polygon class="st4" points="67.1,260.1 65.9,260.1 65.9,254.8 67.2,254.8 67.5,256.6 81.7,261.7 81.7,264.1 67.3,269.5 
		67.2,270.9 65.9,270.9 65.9,262.9 67.1,262.9 67.4,265 77.3,261.6 67.4,258.2 	"/>
	<path class="st4" d="M67.1,251.2h-1.3l0.3-12.6l4.1-0.1l-0.1,2.1l-2.8,0.4l-0.1,4.1c0.9,0,1.8,0.1,2.8,0.1c0.9,0,1.9,0.1,2.8,0.1
		l0.1-2.7l-1.9-0.4v-1.4l5.1,0.1v1.4l-1.9,0.3l-0.1,2.7c1.1,0,2.1,0.1,3.1,0.1s2,0,2.9,0.1l0.1-4.6l-2.8-0.6l0.1-2.1l4.1,0.3
		l-0.4,13.1h-1.3l-0.1-1.9c-1-0.1-1.9-0.1-2.9-0.1s-2-0.1-3-0.1H73c-1,0-2-0.1-3-0.1s-2,0-2.9,0V251.2z"/>
	<path class="st4" d="M68.4,232.3l-1.2-0.4l2.3-7.8l1.2,0.4l-0.4,2c0.9,0.3,1.9,0.6,2.8,0.9s1.9,0.6,2.8,0.9l1.2,0.4
		c0.8,0.2,1.7,0.5,2.6,0.8s1.9,0.5,2.8,0.8l1.2-4.1l-3-1.6l0.6-1.9l4.4,1.6l-3.6,12.3l-1.2-0.4l0.3-1.8c-0.9-0.3-1.8-0.6-2.7-0.9
		c-0.9-0.3-1.7-0.5-2.5-0.7l-1.3-0.4c-0.9-0.3-1.9-0.6-2.8-0.8s-1.9-0.6-2.8-0.8L68.4,232.3z"/>
	<path class="st4" d="M74.3,214.9l-1.1-0.7l4.2-7l1.1,0.7l-0.9,1.9c0.8,0.5,1.7,1,2.5,1.6s1.7,1,2.6,1.5l1.1,0.6
		c0.7,0.4,1.5,0.9,2.4,1.4c0.8,0.5,1.7,1,2.5,1.5l2.2-3.7l-2.5-2.3l1-1.7l3.9,2.6l-6.6,11l-1.1-0.7l0.8-1.7c-0.8-0.5-1.6-1-2.4-1.5
		s-1.5-0.9-2.2-1.3l-1.2-0.7c-0.8-0.5-1.7-1-2.6-1.5c-0.8-0.5-1.7-1-2.6-1.5L74.3,214.9z"/>
	<path class="st4" d="M93.9,210.1l-0.9-0.9l1.2-1.6L88,193.9l1.8-1.8l13.6,6.8l1.2-0.9l0.9,0.9l-5.5,5.3l-0.9-0.9l1.2-1.5l-2.9-1.5
		l-3.6,3.5l1.4,2.8l1.6-1.1l0.9,0.9L93.9,210.1z M90.6,196.6l2.8,5.8l2.9-2.8L90.6,196.6z"/>
	<path class="st4" d="M99.8,185.7l-0.7-1.1l6.8-4.2l0.7,1.1l-1.5,1.1c0.5,0.8,1,1.7,1.5,2.5s1,1.7,1.6,2.6l0.4,0.7
		c0.5,0.8,1,1.7,1.6,2.5c0.5,0.9,1.1,1.7,1.6,2.5l1.7-0.8l0.7,1.1l-6.8,4.2l-0.7-1.1l1.5-1.1c-0.5-0.9-1-1.7-1.5-2.5s-1-1.7-1.6-2.6
		l-0.5-0.8c-0.5-0.8-1-1.7-1.6-2.5c-0.5-0.9-1.1-1.7-1.6-2.5L99.8,185.7z"/>
	<path class="st4" d="M128.2,189.1c-0.9,0.2-1.8,0.4-2.8,0.4s-1.9-0.1-2.7-0.3l-0.7-3.5l2.2-0.6l1.2,2.7c0.4,0.1,0.8,0.1,1.2,0
		c0.4,0,0.8-0.1,1.3-0.2c0.9-0.2,1.5-0.6,1.8-1.1s0.4-1.1,0.3-1.7c-0.1-0.6-0.4-1.1-0.9-1.3c-0.4-0.3-1-0.4-1.8-0.6l-1.1-0.2
		c-1.6-0.3-2.8-0.7-3.8-1.3s-1.6-1.5-1.9-2.8c-0.3-1.4-0.1-2.6,0.8-3.7s2.2-1.8,4-2.3c0.9-0.2,1.7-0.3,2.6-0.3
		c0.8,0,1.6,0.1,2.3,0.4l0.6,3.3l-2.2,0.6l-1.1-2.6c-0.3,0-0.6,0-0.8,0s-0.6,0.1-0.9,0.1c-0.7,0.2-1.2,0.5-1.6,1s-0.5,1.1-0.3,1.7
		c0.2,0.6,0.5,1.1,0.9,1.3s1.1,0.5,1.9,0.6l1.3,0.2c1.7,0.3,3,0.7,3.8,1.3c0.9,0.6,1.4,1.4,1.7,2.6c0.3,1.4,0.1,2.6-0.8,3.8
		C131.7,187.7,130.2,188.5,128.2,189.1z"/>
	<path class="st4" d="M136,172.5l-0.1-1.3l8-0.4l0.1,1.3l-1.9,0.3c0,1,0.1,1.9,0.1,2.9s0.1,2,0.1,3v0.9c0.1,1,0.1,2,0.2,3
		s0.1,2,0.2,3l1.9,0.1l0.1,1.3l-8,0.4l-0.1-1.3l1.9-0.3c0-1-0.1-1.9-0.1-2.9s-0.1-2-0.2-3l-0.1-0.9c-0.1-1-0.1-2-0.2-3
		c-0.1-1-0.1-2-0.2-2.9L136,172.5z"/>
	<path class="st4" d="M149.6,172l0.2-1.3l7.9,1.3c1.9,0.3,3.4,0.9,4.3,1.8c0.9,0.9,1.3,1.9,1.1,3.1c-0.1,0.5-0.3,1-0.7,1.5
		s-0.9,0.8-1.6,1.1s-1.6,0.4-2.7,0.4c0.9,0.3,1.6,0.6,2.1,1s0.8,0.9,1,1.4c0.2,0.6,0.3,1.2,0.3,2v2.7l1.8,0.5l-0.2,1.3
		c-0.4,0-0.7,0-1,0s-0.5,0-0.8,0s-0.6-0.1-0.9-0.1c-1-0.2-1.8-0.5-2.4-0.9s-0.8-1.1-0.8-2.1v-2.8c0-0.8-0.1-1.4-0.4-1.9
		c-0.3-0.4-0.8-0.7-1.5-0.8l-0.9-0.1c-0.2,1-0.3,2-0.5,2.9s-0.3,1.9-0.4,2.8l1.9,0.5l-0.2,1.3l-7.9-1.3l0.2-1.3l1.9,0.1
		c0.2-0.9,0.4-1.9,0.5-2.9c0.2-1,0.3-2,0.5-2.9l0.1-0.9c0.2-1,0.3-1.9,0.5-2.9s0.3-2,0.4-2.9L149.6,172z M156.5,173.2l-1-0.2
		c-0.2,1-0.4,1.9-0.5,2.9c-0.2,1-0.3,1.9-0.5,2.8l0.9,0.1c0.8,0.1,1.5,0.1,2-0.1s0.9-0.5,1.1-0.9c0.3-0.4,0.4-0.9,0.5-1.4
		C159.4,174.7,158.6,173.5,156.5,173.2z"/>
	<path class="st4" d="M164,189.1l0.5-1.2l1.9,0.6l10.5-10.7l2.3,1.1l-1.4,15.1l1.3,0.8l-0.5,1.1l-6.9-3.2l0.5-1.1l1.8,0.6l0.4-3.2
		l-4.5-2.1l-2.2,2.3l1.6,1.1l-0.5,1.2L164,189.1z M175.4,181.1l-4.4,4.7l3.7,1.7L175.4,181.1z"/>
	<path class="st4" d="M185.8,202.4c-1.3-1.1-2.2-2.3-2.8-3.6s-0.7-2.7-0.5-4.1c0.3-1.4,0.9-2.8,2-4.1s2.3-2.2,3.6-2.7
		s2.7-0.6,4.2-0.3s2.9,1.1,4.3,2.3c0.6,0.5,1.2,1.1,1.7,1.8s0.9,1.4,1.3,2.1l-2.3,2.9l-1.5-1.2l1.4-2.9c-0.3-0.6-0.7-1-1.1-1.4
		c-0.7-0.6-1.5-0.9-2.4-1s-1.8,0.1-2.8,0.6s-2,1.3-3,2.6c-1,1.2-1.7,2.4-2,3.4c-0.3,1.1-0.4,2-0.1,2.9s0.7,1.6,1.4,2.2
		c0.3,0.2,0.5,0.4,0.8,0.5l0.7-0.8c0.4-0.5,0.9-1.1,1.3-1.6c0.4-0.5,0.9-1.1,1.3-1.6l-1.5-1.6l0.8-1l5.8,4.9l-0.8,1l-1.1-0.7
		c-0.5,0.5-0.9,1.1-1.4,1.6s-0.9,1.1-1.4,1.7l-0.6,0.8c-1-0.2-1.9-0.5-2.7-0.9S186.6,203.1,185.8,202.4z"/>
	<path class="st4" d="M210,207.9l1.1-0.7l3.3,4.9l-1.1,0.7l-1.3-1.6l-6.2,4.2c-2.1,1.4-3.9,2-5.5,1.7s-3-1.3-4.1-3
		c-0.7-1-1.1-2-1.3-3.1s-0.1-2,0.4-3s1.3-1.9,2.6-2.8l2.2-1.5c0.8-0.5,1.6-1.1,2.4-1.6c0.8-0.5,1.6-1.1,2.4-1.6L204,199l1.1-0.7
		l4.5,6.7l-1.1,0.7l-1.3-1.6c-0.8,0.5-1.6,1-2.4,1.6c-0.8,0.5-1.6,1.1-2.4,1.6l-1.5,1c-1.5,1-2.4,2-2.7,2.9s-0.1,1.9,0.6,2.8
		c0.6,0.9,1.4,1.4,2.4,1.5s2.2-0.4,3.7-1.4l6.2-4.2L210,207.9z"/>
	<path class="st4" d="M204,230.2c-0.5-1.6-0.7-3.1-0.4-4.6c0.3-1.4,0.9-2.7,1.8-3.7c1-1.1,2.3-1.9,3.9-2.4c1.6-0.5,3.1-0.6,4.5-0.3
		s2.6,1,3.7,2c1.1,1.1,1.9,2.5,2.4,4.3c0.3,0.8,0.4,1.6,0.5,2.4c0.1,0.9,0.1,1.7-0.1,2.5l-3.5,1.2l-0.6-1.8l2.7-1.6
		c0.1-0.6,0-1.2-0.2-1.8c-0.3-0.9-0.8-1.6-1.5-2.1c-0.7-0.6-1.6-0.9-2.7-1c-1.1-0.1-2.4,0.1-3.9,0.5c-1.5,0.5-2.7,1.1-3.5,1.8
		c-0.9,0.7-1.4,1.5-1.7,2.4s-0.2,1.7,0,2.6c0.1,0.4,0.2,0.6,0.4,0.9l1-0.3c0.7-0.2,1.3-0.4,2-0.6s1.3-0.4,1.9-0.7l-0.4-2.2l1.2-0.4
		l2.3,7.2l-1.2,0.4l-0.6-1.2c-0.7,0.2-1.4,0.4-2.1,0.6c-0.7,0.2-1.4,0.4-2.1,0.7l-1,0.3c-0.7-0.7-1.3-1.4-1.8-2.2
		S204.3,231.3,204,230.2z"/>
	<path class="st4" d="M206.6,236.9h1.3l0.4,2l14.3,4.6l0.1,2.6l-14.2,5.5l-0.1,1.5h-1.2l-0.2-7.6h1.2l0.3,1.9l3.1-1.1l-0.1-5l-3-0.9
		l-0.2,1.9H207L206.6,236.9z M218.8,243.5l-6.2-1.9l0.1,4.1L218.8,243.5z"/>
	<path class="st4" d="M221.3,256.4h1.3v8.2h-1.3l-0.2-2.1c-1,0-2,0-2.9,0c-1,0-2,0-3,0h-1.3c-0.9,0-1.8,0-2.7,0c-1,0-1.9,0-2.9,0
		v4.3l3.3,0.7v2l-4.7-0.3v-12.8h1.3l0.2,1.9c1,0,1.9,0,2.9,0s1.8,0,2.6,0h1.4c1,0,2,0,3,0s2,0,2.9,0L221.3,256.4z"/>
	<path class="st5" d="M140.4,293.3c0.5,0.6,1.7,2,3.7,2.8c2.3,0.9,4.4,0.6,5.2,0.5c0.1,0,0.2,0,0.3-0.1c0.3-0.1,0.7-0.1,1-0.2
		c2,1.4,4.6,1.7,6.6,0.7c1.5-0.7,2.2-2,2.5-2.6c-0.6,0.7-1.3,1.2-1.8,1.4c-3.3,1.6-7.1-1-7.4-1.2c-0.9,0.3-2.2,0.7-3.9,0.7
		C143.6,295.3,141.4,293.9,140.4,293.3z"/>
	<path class="st8" d="M161.4,281c2.8-20.1-2.5-42.5,4.3-61.8c-3.3-1.1-6.4,1.9-8.4,4.7c-7.6,11-11.6,23.9-14.5,37.1
		c0.3,1.4,0.6,2.8,1,4.2c1,3.4,2.3,6.7,4.6,9.5c-2.7-2.9-4.9-6.3-6.3-10c-0.4,2.2-0.9,4.4-1.3,6.6c-0.6,3.5-1.3,7.1-1.1,10.7
		c1.2,2.7,2.8,5.3,4.7,7.6c-1.6-1.1-3-2.5-4.2-4c0.1,0.5,0.3,1,0.4,1.5c1.8,5,7.1,9.2,12.2,7.8c2.8-0.8,5-3,6.3-5.6
		C160.5,286.7,161.1,283.8,161.4,281z"/>
	<path class="st9" d="M151.8,252.2c-2.3,16.9,2.2,27.6-3.3,45.6c-1.8,5.9-4,10.5-5.6,13.5c1.9-1.4,3.8-2.7,5.7-4.1
		c0.8-2.7,1.8-6.9,2.7-12.1c3.2-18.7,0.1-28.1,1.5-42.2c0.7-7,2.6-17.1,8.6-29.1C155.1,235.3,152.7,245.2,151.8,252.2z"/>
	<path class="st10" d="M155.1,260.1c-0.1,7.3,0.2,13.2,0.5,17.1c0.3,3,0.6,5.6,0.8,7.4c1.2-3.1,1.9-5.7,2.3-7.3
		c3.6-14.8-1.1-23.1,1.5-39.7c0.5-3.1,1.1-5.6,1.4-7.1c-1.3,2.7-3,6.6-4.3,11.4C155.4,249.7,155.2,256,155.1,260.1z"/>
	<path class="st10" d="M144,268.7c0,3,0.3,6.4,0.8,10.1c0.4,2.9,1,5.5,1.6,7.9c1-2,2.4-5,3.2-9c1.6-7.6-0.6-12.4-0.6-19.4
		c0-6.5,1-12.8,2.9-19c-4.3,7.9-7.1,17.4-7.8,26.8c0.9,3.1,2.3,6.1,4.3,8.6C146.7,272.9,145.3,270.9,144,268.7z"/>
	<path class="st11" d="M151.4,295.1c2.5-15,1.1-24,1.1-34.3c-0.8,11,0.4,22.1-1.8,32.8c-1.2,5.8-3.3,11.5-6.3,16.6
		c1.4-1,2.9-2,4.3-3.1C149.4,304.5,150.5,300.3,151.4,295.1z"/>
	<path class="st5" d="M136.7,275.1c-0.3,0.4-1,1.2-2.2,1.7c-1.4,0.6-2.6,0.4-3.1,0.3h-0.2c-0.2,0-0.4-0.1-0.6-0.1
		c-1.2,0.9-2.8,1-4,0.4c-0.9-0.5-1.3-1.2-1.5-1.6c0.4,0.5,0.8,0.7,1.1,0.9c2,1,4.3-0.6,4.4-0.7c0.5,0.2,1.3,0.4,2.3,0.4
		C134.8,276.3,136.1,275.5,136.7,275.1z"/>
	<path class="st8" d="M124.1,267.6c-1.6-12.2,1.6-25.7-2.4-37.3c2-0.7,3.9,1.1,5.1,2.9c4.6,6.7,6.9,14.5,8.6,22.4
		c-0.2,0.9-0.4,1.7-0.6,2.5c-0.6,2-1.4,4-2.8,5.7c1.7-1.7,3-3.8,3.9-6c0.3,1.3,0.5,2.7,0.8,4c0.4,2.1,0.7,4.3,0.6,6.5
		c-0.7,1.6-1.7,3.2-2.9,4.6c1-0.7,1.8-1.5,2.6-2.4c-0.1,0.3-0.2,0.6-0.3,0.9c-1.1,3-4.3,5.5-7.4,4.7c-1.7-0.5-3-1.8-3.8-3.4
		S124.3,269.3,124.1,267.6z"/>
	<path class="st9" d="M130,250.2c1.3,10.2-1.4,16.7,1.8,27.5c1.1,3.6,2.4,6.4,3.3,8.1c-1.1-0.8-2.3-1.6-3.4-2.5
		c-0.4-1.6-1.1-4.2-1.6-7.3c-1.9-11.3,0-17-0.8-25.5c-0.4-4.3-1.6-10.3-5.1-17.6C128,240,129.4,246,130,250.2z"/>
	<path class="st10" d="M127.9,255c0.1,4.4-0.2,8-0.4,10.4c-0.2,1.8-0.4,3.4-0.5,4.5c-0.7-1.9-1.2-3.4-1.4-4.4
		c-2.1-8.9,0.7-13.9-0.8-24c-0.3-1.9-0.6-3.4-0.8-4.3c0.8,1.6,1.8,4,2.6,6.9C127.8,248.7,127.9,252.5,127.9,255z"/>
	<path class="st10" d="M134.6,260.2c0,1.8-0.2,3.9-0.5,6.1c-0.3,1.7-0.6,3.3-1,4.7c-0.6-1.2-1.4-3-1.9-5.4
		c-0.9-4.6,0.4-7.5,0.4-11.7c0-3.9-0.6-7.7-1.7-11.5c2.5,4.8,4.3,10.5,4.6,16.2c-0.6,1.9-1.4,3.7-2.6,5.2
		C133,262.7,133.9,261.5,134.6,260.2z"/>
	<path class="st11" d="M130.1,276.1c-1.5-9-0.6-14.5-0.6-20.7c0.4,6.6-0.3,13.3,1,19.8c0.7,3.5,2,6.9,3.8,10
		c-0.9-0.6-1.7-1.3-2.6-1.9C131.3,281.8,130.6,279.3,130.1,276.1z"/>
	<path class="st5" d="M144.2,236.2c-0.2,0.3-0.6,0.8-1.4,1.1c-0.9,0.4-1.7,0.2-2,0.2h-0.1c-0.1,0-0.3-0.1-0.4-0.1
		c-0.8,0.6-1.8,0.7-2.5,0.3c-0.6-0.3-0.9-0.8-1-1c0.2,0.3,0.5,0.4,0.7,0.6c1.3,0.6,2.8-0.4,2.9-0.4c0.4,0.1,0.9,0.3,1.5,0.3
		C142.9,236.9,143.8,236.4,144.2,236.2z"/>
	<path class="st8" d="M136,231.4c-1-7.8,1-16.5-1.6-24c1.3-0.4,2.5,0.7,3.3,1.9c2.9,4.3,4.5,9.3,5.5,14.4c-0.1,0.6-0.2,1.1-0.4,1.6
		c-0.4,1.3-0.9,2.6-1.8,3.7c1.1-1.1,1.9-2.4,2.5-3.9c0.2,0.9,0.3,1.7,0.5,2.6c0.2,1.4,0.5,2.8,0.4,4.1c-0.5,1.1-1.1,2.1-1.8,2.9
		c0.6-0.4,1.2-1,1.6-1.6c-0.1,0.2-0.1,0.4-0.2,0.6c-0.7,1.9-2.8,3.6-4.8,3c-1.1-0.3-1.9-1.2-2.4-2.2
		C136.4,233.6,136.2,232.5,136,231.4z"/>
	<path class="st9" d="M139.8,220.2c0.9,6.6-0.9,10.7,1.2,17.7c0.7,2.3,1.5,4.1,2.1,5.2c-0.7-0.5-1.5-1.1-2.2-1.6
		c-0.3-1.1-0.7-2.7-1-4.7c-1.2-7.3,0-10.9-0.5-16.4c-0.3-2.7-1-6.6-3.3-11.3C138.6,213.7,139.5,217.5,139.8,220.2z"/>
	<path class="st10" d="M138.5,223.3c0.1,2.9-0.1,5.1-0.2,6.6c-0.1,1.2-0.2,2.2-0.3,2.9c-0.5-1.2-0.7-2.2-0.9-2.8
		c-1.4-5.7,0.5-9-0.5-15.4c-0.2-1.2-0.4-2.2-0.5-2.8c0.5,1,1.1,2.6,1.6,4.4C138.4,219.2,138.5,221.7,138.5,223.3z"/>
	<path class="st10" d="M142.8,226.6c0,1.2-0.1,2.5-0.3,3.9c-0.2,1.1-0.4,2.1-0.6,3c-0.4-0.8-0.9-2-1.2-3.5c-0.6-3,0.3-4.8,0.3-7.5
		c0-2.5-0.4-5-1.1-7.4c1.6,3.1,2.7,6.8,3,10.4c-0.4,1.2-0.9,2.4-1.7,3.3C141.8,228.2,142.3,227.5,142.8,226.6z"/>
	<path class="st11" d="M139.9,236.9c-1-5.8-0.4-9.3-0.4-13.3c0.3,4.3-0.2,8.6,0.6,12.8c0.4,2.3,1.3,4.4,2.4,6.4
		c-0.6-0.4-1.1-0.8-1.7-1.2C140.7,240.5,140.3,238.9,139.9,236.9z"/>
	<polygon class="st5" points="214.1,275.8 215.1,279 215.2,279 218.6,279 218.6,279.1 215.8,281.1 215.8,281.2 216.9,284.4 
		216.8,284.5 214.1,282.5 214,282.5 211.3,284.5 211.2,284.4 212.2,281.2 212.2,281.1 209.4,279.1 209.5,279 212.9,279 212.9,279 
		214,275.8 	"/>
	<polygon class="st5" points="73.6,275.8 74.7,279 74.7,279 78.1,279 78.1,279.1 75.4,281.1 75.4,281.2 76.4,284.4 76.3,284.5 
		73.6,282.5 73.5,282.5 70.8,284.5 70.7,284.4 71.7,281.2 71.7,281.1 69,279.1 69,279 72.4,279 72.4,279 73.5,275.8 	"/>
	<text transform="matrix(1 0 0 1 270.1178 377.2)" class="st12 st13 st14">An ISO 9001 : 2015 Certified Organisation</text>
</g>
</svg>
